<?xml version="1.0" encoding="UTF-8" standalone="no"?>
<!-- Created with Inkscape (http://www.inkscape.org/) -->

<svg
   xmlns:dc="http://purl.org/dc/elements/1.1/"
   xmlns:cc="http://creativecommons.org/ns#"
   xmlns:rdf="http://www.w3.org/1999/02/22-rdf-syntax-ns#"
   xmlns:svg="http://www.w3.org/2000/svg"
   xmlns="http://www.w3.org/2000/svg"
   xmlns:sodipodi="http://sodipodi.sourceforge.net/DTD/sodipodi-0.dtd"
   xmlns:inkscape="http://www.inkscape.org/namespaces/inkscape"
   width="5.0002122mm"
   height="5.0002198mm"
   viewBox="0 0 5.0002122 5.0002199"
   version="1.1"
   id="svg8"
   inkscape:version="0.92.5 (2060ec1f9f, 2020-04-08)"
   sodipodi:docname="favicon.svg"
   inkscape:export-filename="/home/tom/favicon.png"
   inkscape:export-xdpi="177.25"
   inkscape:export-ydpi="177.25">
  <defs
     id="defs2" />
  <sodipodi:namedview
     id="base"
     pagecolor="#ffffff"
     bordercolor="#666666"
     borderopacity="1.0"
     inkscape:pageopacity="0.0"
     inkscape:pageshadow="2"
     inkscape:zoom="11.64"
     inkscape:cx="6.7232415"
     inkscape:cy="5.6786492"
     inkscape:document-units="mm"
     inkscape:current-layer="layer1"
     showgrid="false"
     fit-margin-top="0"
     fit-margin-left="0"
     fit-margin-right="0"
     fit-margin-bottom="0"
     inkscape:window-width="1920"
     inkscape:window-height="1015"
     inkscape:window-x="0"
     inkscape:window-y="0"
     inkscape:window-maximized="1" />
  <metadata
     id="metadata5">
    <rdf:RDF>
      <cc:Work
         rdf:about="">
        <dc:format>image/svg+xml</dc:format>
        <dc:type
           rdf:resource="http://purl.org/dc/dcmitype/StillImage" />
        <dc:title></dc:title>
      </cc:Work>
    </rdf:RDF>
  </metadata>
  <g
     inkscape:label="Layer 1"
     inkscape:groupmode="layer"
     id="layer1"
     transform="translate(-68.847468,-122.79359)">
    <path
       style="opacity:1;vector-effect:none;fill:#008000;fill-opacity:1;stroke:none;stroke-width:0.20711088;stroke-linecap:butt;stroke-linejoin:round;stroke-miterlimit:4;stroke-dasharray:none;stroke-dashoffset:0;stroke-opacity:1"
       d="m 68.847468,122.79359 v 5.00022 h 5.000212 v -5.00022 z m 1.230933,1.01648 c 0.279622,0 0.492261,0.0867 0.638204,0.25993 0.147169,0.1732 0.229003,0.4193 0.244946,0.73794 h -0.45992 c -0.0098,-0.21286 -0.04565,-0.36358 -0.106971,-0.45217 -0.06132,-0.0886 -0.166637,-0.13281 -0.316259,-0.13281 -0.165566,0 -0.285891,0.0679 -0.360702,0.20413 -0.07358,0.13486 -0.110071,0.33919 -0.110071,0.61288 v 0.50539 c 0,0.26047 0.03183,0.46234 0.0956,0.60514 0.065,0.14279 0.183319,0.21394 0.355017,0.21394 0.156981,0 0.266632,-0.0413 0.329179,-0.12454 0.06255,-0.0833 0.09987,-0.2323 0.112138,-0.44649 h 0.45992 c -0.01226,0.31203 -0.09442,0.55418 -0.246497,0.72606 -0.150848,0.17187 -0.368986,0.25786 -0.65474,0.25786 -0.284528,0 -0.50784,-0.10798 -0.669727,-0.32349 -0.16066,-0.21684 -0.240812,-0.51976 -0.240812,-0.90848 v -0.50126 c 0,-0.38871 0.08248,-0.69164 0.248047,-0.90847 0.165566,-0.21683 0.393212,-0.32556 0.682646,-0.32556 z m 1.110526,0.0398 h 0.596346 l 0.584977,2.19728 0.582911,-2.19728 h 0.594279 v 2.88768 h -0.459921 v -0.93224 l 0.04237,-1.14825 -0.597896,2.08049 h -0.327629 l -0.597896,-2.08618 0.04238,1.15394 v 0.93224 h -0.459921 z"
       id="rect838"
       inkscape:connector-curvature="0" />
  </g>
</svg>
