<?xml version="1.0" encoding="UTF-8" standalone="no"?>
<svg
   xmlns:dc="http://purl.org/dc/elements/1.1/"
   xmlns:cc="http://creativecommons.org/ns#"
   xmlns:rdf="http://www.w3.org/1999/02/22-rdf-syntax-ns#"
   xmlns:svg="http://www.w3.org/2000/svg"
   xmlns="http://www.w3.org/2000/svg"
   xmlns:sodipodi="http://sodipodi.sourceforge.net/DTD/sodipodi-0.dtd"
   xmlns:inkscape="http://www.inkscape.org/namespaces/inkscape"
   sodipodi:docname="ukri.svg"
   inkscape:version="0.92.3 (2405546, 2018-03-11)"
   id="svg1194"
   version="1.1"
   viewBox="0 0 39.32079 39.317745"
   height="148.60249"
   width="148.61401">
  <defs
     id="defs1188">
    <clipPath
       id="clip1">
      <path
         d="m 218,81 h 7.875 v 9 H 218 Z m 0,0"
         id="path216"
         inkscape:connector-curvature="0" />
    </clipPath>
    <clipPath
       id="clip2">
      <path
         d="M 56.691406,51.023438 H 107 V 100.62891 H 56.691406 Z m 0,0"
         id="path219"
         inkscape:connector-curvature="0" />
    </clipPath>
  </defs>
  <sodipodi:namedview
     inkscape:window-maximized="1"
     inkscape:window-y="-8"
     inkscape:window-x="-8"
     inkscape:window-height="1058"
     inkscape:window-width="1920"
     fit-margin-bottom="1"
     fit-margin-right="1"
     fit-margin-left="1"
     fit-margin-top="1"
     units="px"
     showgrid="false"
     inkscape:document-rotation="0"
     inkscape:current-layer="layer1"
     inkscape:document-units="mm"
     inkscape:cy="74.301244"
     inkscape:cx="251"
     inkscape:zoom="3.4800797"
     inkscape:pageshadow="2"
     inkscape:pageopacity="0.0"
     borderopacity="1.0"
     bordercolor="#666666"
     pagecolor="#ffffff"
     id="base" />
  <metadata
     id="metadata1191">
    <rdf:RDF>
      <cc:Work
         rdf:about="">
        <dc:format>image/svg+xml</dc:format>
        <dc:type
           rdf:resource="http://purl.org/dc/dcmitype/StillImage" />
        <dc:title></dc:title>
      </cc:Work>
    </rdf:RDF>
  </metadata>
  <g
     transform="translate(-17.518308,-45.414133)"
     id="layer1"
     inkscape:groupmode="layer"
     inkscape:label="Layer 1">
    <g
       style="clip-rule:nonzero"
       id="g274"
       clip-path="url(#clip2)"
       transform="matrix(0.78194146,0,0,0.78194146,-26.546469,5.7813751)">
      <path
         inkscape:connector-curvature="0"
         id="path272"
         d="M 106.30078,100.62891 H 56.691406 V 51.023438 h 49.609374 z m 0,0"
         style="fill:#1e1e5c;fill-opacity:1;fill-rule:nonzero;stroke:none" />
    </g>
    <path
       inkscape:connector-curvature="0"
       id="path276"
       d="m 47.780733,65.07453 h -6.078374 v -6.493779 m 0.778887,18.565 h -5.30254 v 2.119795 l -3.732549,-4.893243 c 2.840647,-0.522313 4.309841,-1.991508 4.309841,-4.548089 0,-0.632274 -0.09163,-1.197348 -0.268792,-1.695225 h 4.99404 m -15.904567,0 h 4.138792 c 1.698279,0 2.388586,0.659763 2.388586,1.695225 0,1.035461 -0.690307,1.713551 -2.388586,1.713551 h -4.138792 m 10.602027,-11.09074 v 7.016092 c -0.962155,-1.624972 -3.176637,-2.382478 -6.463235,-2.388587 2.93228,-0.299337 5.641585,-1.881547 6.463235,-4.627505 M 52.304383,49.94885 h -4.52365 l -6.078374,6.475452 V 49.94885 h -8.787678 v 8.595247 c 0,1.838784 -1.362289,2.907845 -3.170528,2.907845 -1.805185,0 -3.167474,-1.069061 -3.167474,-2.907845 V 49.94885 h -4.523653 v 8.659391 c 0,3.879162 3.13082,6.105863 6.664828,6.466289 h -6.664828 v 15.12568 h 4.523653 v -5.607986 h 1.973181 l 4.181554,5.607986 h 19.572969 v -3.054459 h -5.302538 v -9.016762 h 5.302538 v -3.992178 l -6.481559,-6.637339 6.481559,-6.615957"
       style="fill:#ffffff;fill-opacity:1;fill-rule:nonzero;stroke:none;stroke-width:0.78194147" />
  </g>
</svg>
